<?xml version="1.0" encoding="UTF-8"?>
<svg xmlns="http://www.w3.org/2000/svg" xmlns:xlink="http://www.w3.org/1999/xlink" width="283.5pt" height="297.749991pt" viewBox="0 0 283.5 297.749991" version="1.2">
<defs>
<clipPath id="clip1">
  <path d="M 14 79.242188 L 269 79.242188 L 269 166 L 14 166 Z M 14 79.242188 "/>
</clipPath>
<clipPath id="clip2">
  <path d="M 2 182 L 281 182 L 281 244.792969 L 2 244.792969 Z M 2 182 "/>
</clipPath>
</defs>
<g id="surface1">
<g clip-path="url(#clip1)" clip-rule="nonzero">
<path style=" stroke:none;fill-rule:nonzero;fill:rgb(14.509583%,18.429565%,24.308777%);fill-opacity:1;" d="M 80.820312 139.355469 C 80.820312 142.765625 81.191406 145.527344 81.835938 147.550781 C 82.574219 149.578125 83.496094 151.789062 84.789062 154.183594 C 85.253906 154.917969 85.4375 155.65625 85.4375 156.300781 C 85.4375 157.21875 84.882812 158.140625 83.683594 159.0625 L 77.863281 162.929688 C 77.035156 163.484375 76.203125 163.757812 75.464844 163.757812 C 74.542969 163.757812 73.617188 163.296875 72.695312 162.46875 C 71.402344 161.089844 70.292969 159.613281 69.371094 158.140625 C 68.449219 156.578125 67.523438 154.828125 66.507812 152.710938 C 59.304688 161.179688 50.257812 165.417969 39.363281 165.417969 C 31.605469 165.417969 25.417969 163.207031 20.894531 158.785156 C 16.371094 154.367188 14.0625 148.472656 14.0625 141.105469 C 14.0625 133.28125 16.832031 126.925781 22.464844 122.136719 C 28.097656 117.347656 35.578125 114.957031 45.085938 114.957031 C 48.226562 114.957031 51.457031 115.230469 54.875 115.691406 C 58.289062 116.152344 61.800781 116.890625 65.492188 117.71875 L 65.492188 110.996094 C 65.492188 103.996094 64.015625 99.117188 61.152344 96.261719 C 58.199219 93.40625 53.210938 92.027344 46.101562 92.027344 C 42.871094 92.027344 39.546875 92.394531 36.128906 93.222656 C 32.714844 94.050781 29.390625 95.066406 26.15625 96.355469 C 24.679688 97 23.574219 97.367188 22.925781 97.550781 C 22.28125 97.734375 21.816406 97.828125 21.449219 97.828125 C 20.15625 97.828125 19.511719 96.90625 19.511719 94.972656 L 19.511719 90.460938 C 19.511719 88.988281 19.695312 87.882812 20.15625 87.238281 C 20.617188 86.59375 21.449219 85.949219 22.742188 85.304688 C 25.972656 83.648438 29.851562 82.265625 34.375 81.160156 C 38.898438 79.964844 43.703125 79.410156 48.78125 79.410156 C 59.769531 79.410156 67.800781 81.898438 72.972656 86.871094 C 78.050781 91.84375 80.636719 99.390625 80.636719 109.523438 L 80.636719 139.355469 Z M 43.332031 153.351562 C 46.378906 153.351562 49.519531 152.800781 52.84375 151.695312 C 56.167969 150.589844 59.121094 148.566406 61.613281 145.800781 C 63.09375 144.054688 64.199219 142.117188 64.753906 139.910156 C 65.308594 137.699219 65.675781 135.027344 65.675781 131.898438 L 65.675781 128.03125 C 63 127.386719 60.136719 126.832031 57.183594 126.464844 C 54.226562 126.097656 51.367188 125.914062 48.503906 125.914062 C 42.316406 125.914062 37.792969 127.109375 34.746094 129.597656 C 31.699219 132.082031 30.21875 135.582031 30.21875 140.183594 C 30.21875 144.511719 31.328125 147.734375 33.636719 149.945312 C 35.851562 152.25 39.085938 153.351562 43.332031 153.351562 Z M 117.484375 163.296875 C 115.816406 163.296875 114.707031 163.023438 113.964844 162.378906 C 113.234375 161.824219 112.582031 160.535156 112.027344 158.785156 L 90.332031 87.605469 C 89.777344 85.765625 89.5 84.566406 89.5 83.921875 C 89.5 82.449219 90.238281 81.621094 91.714844 81.621094 L 100.765625 81.621094 C 102.519531 81.621094 103.71875 81.898438 104.367188 82.542969 C 105.105469 83.09375 105.660156 84.382812 106.210938 86.132812 L 121.71875 147.09375 L 136.132812 86.132812 C 136.589844 84.292969 137.144531 83.09375 137.882812 82.542969 C 138.625 81.988281 139.910156 81.621094 141.578125 81.621094 L 148.960938 81.621094 C 150.714844 81.621094 151.914062 81.898438 152.65625 82.542969 C 153.394531 83.09375 154.039062 84.382812 154.410156 86.132812 L 169.003906 147.828125 L 184.972656 86.132812 C 185.527344 84.292969 186.171875 83.09375 186.824219 82.542969 C 187.554688 81.988281 188.765625 81.621094 190.421875 81.621094 L 199.015625 81.621094 C 200.484375 81.621094 201.3125 82.359375 201.3125 83.921875 C 201.3125 84.382812 201.226562 84.84375 201.136719 85.398438 C 201.039062 85.949219 200.855469 86.6875 200.484375 87.699219 L 178.230469 158.878906 C 177.675781 160.722656 177.03125 161.917969 176.292969 162.472656 C 175.550781 163.023438 174.351562 163.390625 172.785156 163.390625 L 164.84375 163.390625 C 163.089844 163.390625 161.890625 163.117188 161.152344 162.472656 C 160.410156 161.828125 159.769531 160.628906 159.398438 158.789062 L 145.085938 99.394531 L 130.871094 158.695312 C 130.402344 160.539062 129.847656 161.734375 129.117188 162.378906 C 128.375 163.023438 127.078125 163.300781 125.421875 163.300781 L 117.484375 163.300781 Z M 236.125 165.785156 C 231.320312 165.785156 226.527344 165.230469 221.910156 164.128906 C 217.292969 163.023438 213.6875 161.824219 211.289062 160.445312 C 209.808594 159.613281 208.796875 158.695312 208.425781 157.867188 C 208.054688 157.035156 207.871094 156.117188 207.871094 155.285156 L 207.871094 150.589844 C 207.871094 148.65625 208.609375 147.734375 209.992188 147.734375 C 210.550781 147.734375 211.105469 147.828125 211.660156 148.011719 C 212.214844 148.195312 213.042969 148.566406 213.96875 148.933594 C 217.105469 150.316406 220.527344 151.417969 224.121094 152.15625 C 227.816406 152.894531 231.421875 153.261719 235.113281 153.261719 C 240.929688 153.261719 245.449219 152.25 248.597656 150.222656 C 251.734375 148.195312 253.390625 145.25 253.390625 141.476562 C 253.390625 138.898438 252.5625 136.777344 250.90625 135.027344 C 249.242188 133.28125 246.101562 131.714844 241.570312 130.242188 L 228.183594 126.097656 C 221.441406 123.980469 216.464844 120.847656 213.414062 116.703125 C 210.363281 112.652344 208.796875 108.140625 208.796875 103.351562 C 208.796875 99.484375 209.625 96.078125 211.289062 93.132812 C 212.957031 90.183594 215.167969 87.605469 217.933594 85.582031 C 220.710938 83.460938 223.847656 81.898438 227.542969 80.792969 C 231.234375 79.6875 235.113281 79.226562 239.175781 79.226562 C 241.203125 79.226562 243.324219 79.320312 245.363281 79.59375 C 247.488281 79.871094 249.425781 80.238281 251.363281 80.609375 C 253.207031 81.066406 254.957031 81.527344 256.625 82.082031 C 258.292969 82.632812 259.578125 83.1875 260.503906 83.738281 C 261.800781 84.476562 262.726562 85.210938 263.269531 86.039062 C 263.824219 86.777344 264.109375 87.789062 264.109375 89.078125 L 264.109375 93.40625 C 264.109375 95.339844 263.367188 96.355469 261.984375 96.355469 C 261.242188 96.355469 260.046875 95.984375 258.476562 95.25 C 253.207031 92.855469 247.300781 91.65625 240.742188 91.65625 C 235.484375 91.65625 231.320312 92.484375 228.46875 94.234375 C 225.601562 95.984375 224.121094 98.65625 224.121094 102.429688 C 224.121094 105.011719 225.046875 107.21875 226.898438 108.96875 C 228.742188 110.71875 232.160156 112.46875 237.050781 114.035156 L 250.167969 118.179688 C 256.8125 120.296875 261.613281 123.242188 264.480469 127.015625 C 267.332031 130.792969 268.726562 135.121094 268.726562 139.910156 C 268.726562 143.867188 267.886719 147.460938 266.320312 150.589844 C 264.664062 153.722656 262.441406 156.484375 259.578125 158.695312 C 256.722656 160.996094 253.304688 162.652344 249.328125 163.851562 C 245.175781 165.140625 240.84375 165.785156 236.125 165.785156 Z M 236.125 165.785156 "/>
</g>
<g clip-path="url(#clip2)" clip-rule="nonzero">
<path style=" stroke:none;fill-rule:nonzero;fill:rgb(100%,59.999084%,0%);fill-opacity:1;" d="M 253.574219 210.53125 C 223.195312 232.910156 179.070312 244.792969 141.121094 244.792969 C 87.929688 244.792969 40.007812 225.175781 3.816406 192.574219 C 0.949219 190 3.535156 186.503906 6.953125 188.523438 C 46.101562 211.183594 94.394531 224.902344 144.339844 224.902344 C 178.042969 224.902344 215.078125 217.910156 249.140625 203.535156 C 254.226562 201.234375 258.5625 206.851562 253.574219 210.53125 Z M 266.234375 196.171875 C 262.355469 191.195312 240.558594 193.78125 230.679688 194.976562 C 227.726562 195.347656 227.257812 192.761719 229.9375 190.828125 C 247.300781 178.675781 275.828125 182.175781 279.152344 186.226562 C 282.484375 190.371094 278.238281 218.820312 261.984375 232.453125 C 259.492188 234.570312 257.082031 233.464844 258.195312 230.703125 C 261.886719 221.589844 270.109375 201.050781 266.234375 196.171875 Z M 266.234375 196.171875 "/>
</g>
</g>
</svg>
