<?xml version="1.0" encoding="UTF-8"?>
<svg xmlns="http://www.w3.org/2000/svg" xmlns:xlink="http://www.w3.org/1999/xlink" width="283.5pt" height="297.749991pt" viewBox="0 0 283.5 297.749991" version="1.2">
<defs>
<clipPath id="clip1">
  <path d="M 183 44 L 283 44 L 283 255 L 183 255 Z M 183 44 "/>
</clipPath>
</defs>
<g id="surface1">
<g clip-path="url(#clip1)" clip-rule="nonzero">
<path style=" stroke:none;fill-rule:nonzero;fill:rgb(12.939453%,45.098877%,27.059937%);fill-opacity:1;" d="M 282.023438 249.632812 C 283.027344 246.539062 283.546875 244.03125 283.546875 242.128906 L 283.546875 47.722656 C 283.546875 46.210938 283.027344 45.300781 282.023438 44.996094 C 281.019531 44.6875 279.765625 44.523438 278.265625 44.523438 L 183.277344 44.523438 L 183.277344 62.042969 L 211.277344 62.042969 L 211.277344 89.785156 L 183.277344 89.785156 L 183.277344 98.621094 L 211.277344 98.621094 L 211.277344 126.394531 L 183.277344 126.394531 L 183.277344 135.480469 L 211.277344 135.480469 L 211.277344 161.746094 L 183.277344 161.746094 L 183.277344 172.273438 L 211.277344 172.273438 L 211.277344 198.59375 L 183.277344 198.59375 L 183.277344 209.121094 L 211.277344 209.121094 L 211.277344 235.597656 L 183.277344 235.597656 L 183.277344 254.914062 L 278.265625 254.914062 C 279.765625 254.453125 281.019531 252.691406 282.023438 249.632812 Z M 265.941406 235.574219 L 220.375 235.574219 L 220.375 209.121094 L 265.941406 209.121094 Z M 265.941406 198.59375 L 220.375 198.59375 L 220.375 172.261719 L 265.941406 172.261719 Z M 265.941406 161.734375 L 220.375 161.734375 L 220.375 135.585938 L 265.941406 135.585938 Z M 265.941406 126.382812 L 220.375 126.382812 L 220.375 98.644531 L 265.941406 98.644531 Z M 265.941406 89.628906 L 220.375 89.628906 L 220.375 62.066406 L 265.941406 62.066406 Z M 265.941406 89.628906 "/>
</g>
<path style=" stroke:none;fill-rule:nonzero;fill:rgb(12.939453%,45.098877%,27.059937%);fill-opacity:1;" d="M 167.292969 10.542969 L 0 40.140625 L 0 259.320312 L 167.292969 288.183594 Z M 99.160156 205.941406 C 98.519531 204.21875 95.519531 196.917969 90.203125 183.992188 C 84.898438 171.078125 81.695312 163.566406 80.761719 161.414062 L 80.46875 161.414062 L 62.523438 204.003906 L 38.539062 202.386719 L 66.988281 149.363281 L 40.9375 96.351562 L 65.394531 95.0625 L 81.554688 136.558594 L 81.875 136.558594 L 100.128906 93.1875 L 125.398438 91.589844 L 95.308594 148.972656 L 126.320312 207.515625 Z M 99.160156 205.941406 "/>
</g>
</svg>
