<?xml version="1.0" encoding="UTF-8"?>
<svg xmlns="http://www.w3.org/2000/svg" xmlns:xlink="http://www.w3.org/1999/xlink" width="283.5pt" height="297.749991pt" viewBox="0 0 283.5 297.749991" version="1.2">
<defs>
<clipPath id="clip1">
  <path d="M 11.210938 114 L 268.882812 114 L 268.882812 184 L 11.210938 184 Z M 11.210938 114 "/>
</clipPath>
<clipPath id="clip2">
  <path d="M 210 0.136719 L 247 0.136719 L 247 38 L 210 38 Z M 210 0.136719 "/>
</clipPath>
<clipPath id="clip3">
  <path d="M 27 257 L 74 257 L 74 297.363281 L 27 297.363281 Z M 27 257 "/>
</clipPath>
</defs>
<g id="surface1">
<g clip-path="url(#clip1)" clip-rule="nonzero">
<path style=" stroke:none;fill-rule:nonzero;fill:rgb(30.589294%,30.589294%,30.589294%);fill-opacity:1;" d="M 21.792969 158.886719 L 21.792969 125.714844 L 28.996094 125.714844 L 28.996094 161.417969 C 29.328125 164.292969 29.082031 167.210938 28.269531 169.996094 C 27.457031 172.769531 26.09375 175.363281 24.265625 177.601562 C 20.863281 180.550781 16.503906 182.140625 12.007812 182.078125 L 11.257812 176.679688 C 14.15625 176.691406 16.949219 175.609375 19.105469 173.664062 C 21.039062 171.394531 21.792969 168.324219 21.792969 158.886719 Z M 75.507812 154.628906 C 75.507812 158.671875 75.507812 162.289062 75.828125 165.417969 L 69.433594 165.417969 L 69.003906 158.996094 C 67.664062 161.273438 65.753906 163.148438 63.457031 164.433594 C 61.164062 165.722656 58.570312 166.378906 55.941406 166.339844 C 49.707031 166.339844 42.289062 162.9375 42.289062 149.070312 L 42.289062 126.039062 L 49.492188 126.039062 L 49.492188 147.621094 C 49.492188 155.117188 51.800781 160.128906 58.304688 160.128906 C 59.644531 160.152344 60.972656 159.886719 62.210938 159.382812 C 63.449219 158.875 64.578125 158.125 65.523438 157.171875 C 66.46875 156.230469 67.214844 155.097656 67.722656 153.851562 C 68.226562 152.613281 68.480469 151.277344 68.464844 149.941406 L 68.464844 125.773438 L 75.667969 125.773438 L 75.667969 154.417969 Z M 89.160156 138.871094 C 89.160156 133.855469 89.160156 129.753906 88.835938 126.039062 L 95.285156 126.039062 L 95.609375 132.78125 C 97.046875 130.34375 99.117188 128.347656 101.59375 127 C 104.074219 125.640625 106.875 124.992188 109.691406 125.117188 C 119.253906 125.117188 126.460938 133.15625 126.460938 145.128906 C 126.460938 159.257812 117.8125 166.277344 108.457031 166.277344 C 106.0625 166.378906 103.679688 165.875 101.542969 164.78125 C 99.40625 163.695312 97.585938 162.074219 96.253906 160.070312 L 96.253906 181.65625 L 89.160156 181.65625 Z M 96.253906 149.394531 C 96.273438 150.367188 96.382812 151.347656 96.578125 152.300781 C 97.1875 154.703125 98.574219 156.820312 100.523438 158.339844 C 102.46875 159.847656 104.863281 160.667969 107.328125 160.667969 C 114.90625 160.667969 119.367188 154.457031 119.367188 145.453125 C 119.367188 137.585938 115.179688 130.839844 107.59375 130.839844 C 104.597656 131.082031 101.789062 132.417969 99.703125 134.597656 C 97.613281 136.773438 96.386719 139.628906 96.253906 142.648438 Z M 139.289062 125.996094 L 147.949219 149.253906 C 148.859375 151.835938 149.828125 154.964844 150.472656 157.285156 C 151.230469 154.914062 152.039062 151.894531 152.996094 149.089844 L 160.847656 125.996094 L 168.429688 125.996094 L 157.679688 154.054688 C 152.300781 167.535156 149.019531 174.492188 144.074219 178.695312 C 141.589844 180.984375 138.554688 182.585938 135.261719 183.335938 L 133.488281 177.300781 C 135.789062 176.539062 137.925781 175.355469 139.773438 173.792969 C 142.398438 171.648438 144.476562 168.914062 145.851562 165.8125 C 146.144531 165.277344 146.34375 164.6875 146.445312 164.082031 C 146.386719 163.433594 146.222656 162.792969 145.960938 162.195312 L 131.335938 125.894531 L 139.1875 125.894531 Z M 187.542969 114.683594 L 187.542969 126.007812 L 197.871094 126.007812 L 197.871094 131.40625 L 187.542969 131.40625 L 187.542969 152.65625 C 187.542969 157.515625 188.949219 160.3125 192.925781 160.3125 C 194.335938 160.34375 195.75 160.179688 197.113281 159.835938 L 197.433594 165.226562 C 195.386719 165.945312 193.214844 166.269531 191.046875 166.199219 C 189.601562 166.289062 188.160156 166.066406 186.816406 165.539062 C 185.464844 165.023438 184.253906 164.210938 183.246094 163.179688 C 181.054688 160.242188 180.054688 156.574219 180.449219 152.929688 L 180.449219 131.355469 L 174.324219 131.355469 L 174.324219 125.957031 L 180.558594 125.957031 L 180.558594 116.355469 Z M 211.132812 146.972656 C 210.988281 148.796875 211.242188 150.640625 211.878906 152.363281 C 212.503906 154.082031 213.503906 155.644531 214.796875 156.949219 C 216.085938 158.246094 217.652344 159.238281 219.367188 159.878906 C 221.082031 160.515625 222.910156 160.769531 224.738281 160.617188 C 228.421875 160.699219 232.085938 160 235.484375 158.570312 L 236.71875 163.960938 C 232.546875 165.691406 228.066406 166.511719 223.554688 166.390625 C 220.921875 166.574219 218.289062 166.175781 215.824219 165.234375 C 213.363281 164.304688 211.121094 162.835938 209.273438 160.953125 C 207.425781 159.066406 206.003906 156.808594 205.117188 154.316406 C 204.21875 151.824219 203.875 149.171875 204.097656 146.539062 C 204.097656 134.675781 211.132812 125.289062 222.636719 125.289062 C 235.535156 125.289062 238.765625 136.613281 238.765625 143.84375 C 238.835938 144.957031 238.835938 146.070312 238.765625 147.1875 L 210.96875 147.1875 Z M 232.207031 141.574219 C 232.417969 140.136719 232.304688 138.667969 231.902344 137.269531 C 231.5 135.863281 230.792969 134.574219 229.855469 133.472656 C 228.90625 132.367188 227.734375 131.476562 226.414062 130.867188 C 225.089844 130.25 223.65625 129.9375 222.214844 129.925781 C 219.257812 130.140625 216.492188 131.457031 214.453125 133.613281 C 212.414062 135.761719 211.253906 138.605469 211.191406 141.574219 Z M 249.695312 138.261719 C 249.695312 133.625 249.695312 129.632812 249.375 125.964844 L 255.824219 125.964844 L 255.824219 133.683594 L 256.144531 133.683594 C 256.820312 131.304688 258.214844 129.1875 260.144531 127.648438 C 262.070312 126.097656 264.433594 125.1875 266.894531 125.054688 C 267.570312 124.964844 268.257812 124.964844 268.933594 125.054688 L 268.933594 131.789062 C 268.117188 131.699219 267.277344 131.699219 266.460938 131.789062 C 264.019531 131.890625 261.695312 132.875 259.929688 134.554688 C 258.15625 136.246094 257.0625 138.527344 256.84375 140.96875 C 256.640625 142.070312 256.53125 143.183594 256.519531 144.308594 L 256.519531 165.285156 L 249.425781 165.285156 L 249.425781 138.324219 Z M 249.695312 138.261719 "/>
</g>
<g clip-path="url(#clip2)" clip-rule="nonzero">
<path style=" stroke:none;fill-rule:nonzero;fill:rgb(46.269226%,46.269226%,46.669006%);fill-opacity:1;" d="M 246.539062 17.640625 C 246.757812 21.265625 245.902344 24.875 244.066406 28.003906 C 242.238281 31.136719 239.523438 33.652344 236.261719 35.230469 C 233.003906 36.804688 229.347656 37.375 225.765625 36.859375 C 222.183594 36.34375 218.84375 34.773438 216.148438 32.34375 C 213.464844 29.914062 211.554688 26.734375 210.675781 23.214844 C 209.800781 19.695312 209.980469 15.988281 211.203125 12.570312 C 212.421875 9.15625 214.632812 6.183594 217.550781 4.03125 C 220.457031 1.878906 223.949219 0.644531 227.5625 0.488281 C 229.933594 0.355469 232.304688 0.699219 234.535156 1.492188 C 236.777344 2.28125 238.835938 3.511719 240.601562 5.105469 C 242.367188 6.699219 243.800781 8.628906 244.8125 10.777344 C 245.832031 12.929688 246.417969 15.261719 246.539062 17.640625 Z M 246.539062 17.640625 "/>
</g>
<path style=" stroke:none;fill-rule:nonzero;fill:rgb(95.289612%,46.669006%,14.898682%);fill-opacity:1;" d="M 140.25 228.90625 C 91.878906 228.90625 49.359375 211.484375 27.378906 185.757812 C 35.90625 208.902344 51.296875 228.863281 71.476562 242.972656 C 91.660156 257.074219 115.664062 264.640625 140.25 264.640625 C 164.84375 264.640625 188.847656 257.074219 209.023438 242.972656 C 229.207031 228.863281 244.601562 208.902344 253.128906 185.757812 C 231.195312 211.484375 188.847656 228.90625 140.25 228.90625 Z M 140.25 228.90625 "/>
<path style=" stroke:none;fill-rule:nonzero;fill:rgb(95.289612%,46.669006%,14.898682%);fill-opacity:1;" d="M 140.25 61.59375 C 188.625 61.59375 231.144531 79.015625 253.128906 104.746094 C 244.601562 81.597656 229.207031 61.628906 209.023438 47.527344 C 188.847656 33.421875 164.84375 25.863281 140.25 25.863281 C 115.664062 25.863281 91.660156 33.421875 71.476562 47.527344 C 51.296875 61.628906 35.90625 81.597656 27.375 104.746094 C 49.359375 78.960938 91.664062 61.59375 140.246094 61.59375 Z M 140.25 61.59375 "/>
<g clip-path="url(#clip3)" clip-rule="nonzero">
<path style=" stroke:none;fill-rule:nonzero;fill:rgb(61.959839%,61.959839%,61.959839%);fill-opacity:1;" d="M 73.65625 278.980469 C 73.941406 283.539062 72.863281 288.085938 70.5625 292.039062 C 68.265625 295.988281 64.847656 299.160156 60.742188 301.144531 C 56.640625 303.140625 52.039062 303.859375 47.527344 303.21875 C 43.015625 302.570312 38.796875 300.597656 35.40625 297.539062 C 32.019531 294.480469 29.613281 290.476562 28.496094 286.050781 C 27.382812 281.613281 27.605469 276.945312 29.144531 272.640625 C 30.679688 268.335938 33.460938 264.589844 37.128906 261.875 C 40.796875 259.160156 45.1875 257.601562 49.738281 257.398438 C 52.722656 257.246094 55.707031 257.671875 58.523438 258.671875 C 61.339844 259.667969 63.929688 261.214844 66.152344 263.210938 C 68.375 265.214844 70.179688 267.648438 71.46875 270.351562 C 72.753906 273.046875 73.5 275.984375 73.65625 278.980469 Z M 73.65625 278.980469 "/>
</g>
<path style=" stroke:none;fill-rule:nonzero;fill:rgb(38.038635%,38.42926%,38.42926%);fill-opacity:1;" d="M 32.875 55.726562 C 30.265625 55.800781 27.699219 55.097656 25.488281 53.707031 C 23.277344 52.320312 21.527344 50.304688 20.457031 47.917969 C 19.382812 45.535156 19.039062 42.882812 19.464844 40.300781 C 19.886719 37.71875 21.066406 35.320312 22.84375 33.410156 C 24.625 31.496094 26.925781 30.152344 29.464844 29.550781 C 32.003906 28.949219 34.660156 29.113281 37.105469 30.023438 C 39.550781 30.929688 41.671875 32.546875 43.207031 34.664062 C 44.738281 36.78125 45.613281 39.304688 45.71875 41.921875 C 45.824219 45.453125 44.53125 48.886719 42.125 51.472656 C 39.71875 54.058594 36.394531 55.585938 32.875 55.726562 Z M 32.875 55.726562 "/>
</g>
</svg>
