<?xml version="1.0" encoding="UTF-8"?>
<svg xmlns="http://www.w3.org/2000/svg" xmlns:xlink="http://www.w3.org/1999/xlink" width="283.5pt" height="297.749991pt" viewBox="0 0 283.5 297.749991" version="1.2">
<defs>
<clipPath id="clip1">
  <path d="M 0 28.484375 L 283 28.484375 L 283 269.046875 L 0 269.046875 Z M 0 28.484375 "/>
</clipPath>
</defs>
<g id="surface1">
<g clip-path="url(#clip1)" clip-rule="nonzero">
<path style=" stroke:none;fill-rule:nonzero;fill:rgb(100%,75.689697%,2.749634%);fill-opacity:1;" d="M 255.191406 269.046875 L 28.355469 269.046875 C 12.71875 269.046875 0 256.351562 0 240.742188 L 0 56.785156 C 0 41.179688 12.71875 28.484375 28.355469 28.484375 L 255.191406 28.484375 C 270.828125 28.484375 283.546875 41.179688 283.546875 56.785156 L 283.546875 240.742188 C 283.546875 256.351562 270.828125 269.046875 255.191406 269.046875 Z M 255.191406 269.046875 "/>
</g>
<path style=" stroke:none;fill-rule:nonzero;fill:rgb(12.939453%,12.939453%,12.939453%);fill-opacity:1;" d="M 212.660156 70.796875 L 71.027344 70.796875 C 55.433594 70.796875 42.671875 83.460938 42.671875 99.097656 L 42.671875 191.21875 C 42.671875 204.375 51.675781 215.414062 63.796875 218.527344 L 63.796875 203.386719 C 59.617188 200.910156 56.851562 196.382812 56.851562 191.21875 L 56.851562 99.097656 C 56.851562 91.3125 63.230469 84.945312 71.027344 84.945312 L 212.660156 84.945312 C 220.457031 84.945312 226.835938 91.3125 226.835938 99.097656 L 226.835938 191.21875 C 226.835938 196.453125 224.003906 200.980469 219.75 203.457031 L 219.75 218.597656 C 232.011719 215.484375 241.015625 204.375 241.015625 191.21875 L 241.015625 99.097656 C 241.015625 83.460938 228.324219 70.796875 212.660156 70.796875 Z M 212.660156 70.796875 "/>
<path style=" stroke:none;fill-rule:nonzero;fill:rgb(12.939453%,12.939453%,12.939453%);fill-opacity:1;" d="M 88.609375 177.066406 C 94.476562 177.066406 99.242188 181.820312 99.242188 187.679688 L 99.242188 223.054688 C 99.242188 228.914062 94.476562 233.667969 88.609375 233.667969 C 82.738281 233.667969 77.976562 228.914062 77.976562 223.054688 L 77.976562 187.679688 C 77.976562 181.820312 82.738281 177.066406 88.609375 177.066406 Z M 88.609375 177.066406 "/>
<path style=" stroke:none;fill-rule:nonzero;fill:rgb(12.939453%,12.939453%,12.939453%);fill-opacity:1;" d="M 124.050781 134.613281 C 129.921875 134.613281 134.683594 139.367188 134.683594 145.226562 L 134.683594 223.054688 C 134.683594 228.914062 129.921875 233.667969 124.050781 233.667969 C 118.183594 233.667969 113.417969 228.914062 113.417969 223.054688 L 113.417969 145.226562 C 113.417969 139.367188 118.183594 134.613281 124.050781 134.613281 Z M 124.050781 134.613281 "/>
<path style=" stroke:none;fill-rule:nonzero;fill:rgb(12.939453%,12.939453%,12.939453%);fill-opacity:1;" d="M 159.496094 155.839844 C 165.363281 155.839844 170.128906 160.59375 170.128906 166.453125 L 170.128906 223.054688 C 170.128906 228.914062 165.363281 233.667969 159.496094 233.667969 C 153.625 233.667969 148.863281 228.914062 148.863281 223.054688 L 148.863281 166.453125 C 148.863281 160.59375 153.625 155.839844 159.496094 155.839844 Z M 159.496094 155.839844 "/>
<path style=" stroke:none;fill-rule:nonzero;fill:rgb(12.939453%,12.939453%,12.939453%);fill-opacity:1;" d="M 194.9375 106.3125 C 200.808594 106.3125 205.570312 111.066406 205.570312 116.925781 L 205.570312 223.054688 C 205.570312 228.914062 200.808594 233.667969 194.9375 233.667969 C 189.070312 233.667969 184.304688 228.914062 184.304688 223.054688 L 184.304688 116.925781 C 184.304688 111.066406 189.070312 106.3125 194.9375 106.3125 Z M 194.9375 106.3125 "/>
</g>
</svg>
