<?xml version="1.0" encoding="UTF-8"?>
<svg xmlns="http://www.w3.org/2000/svg" xmlns:xlink="http://www.w3.org/1999/xlink" width="283.5pt" height="297.749991pt" viewBox="0 0 283.5 297.749991" version="1.2">
<defs>
<clipPath id="clip1">
  <path d="M 149 36 L 283 36 L 283 258 L 149 258 Z M 149 36 "/>
</clipPath>
<clipPath id="clip2">
  <path d="M 0 5.191406 L 166 5.191406 L 166 288.691406 L 0 288.691406 Z M 0 5.191406 "/>
</clipPath>
</defs>
<g id="surface1">
<g clip-path="url(#clip1)" clip-rule="nonzero">
<path style=" stroke:none;fill-rule:nonzero;fill:rgb(100%,54.119873%,39.608765%);fill-opacity:1;" d="M 275.671875 36.695312 L 149.648438 36.695312 L 149.648438 257.230469 L 275.671875 257.230469 C 280.027344 257.230469 283.546875 253.710938 283.546875 249.355469 L 283.546875 44.570312 C 283.546875 40.214844 280.027344 36.695312 275.671875 36.695312 Z M 275.671875 36.695312 "/>
</g>
<path style=" stroke:none;fill-rule:nonzero;fill:rgb(98.429871%,91.369629%,90.589905%);fill-opacity:1;" d="M 141.773438 186.34375 L 252.042969 186.34375 L 252.042969 202.097656 L 141.773438 202.097656 Z M 141.773438 217.851562 L 252.042969 217.851562 L 252.042969 233.601562 L 141.773438 233.601562 Z M 189.03125 76.078125 C 162.9375 76.078125 141.773438 97.242188 141.773438 123.335938 C 141.773438 149.429688 162.9375 170.59375 189.03125 170.59375 C 215.125 170.59375 236.289062 149.429688 236.289062 123.335938 L 189.03125 123.335938 Z M 189.03125 76.078125 "/>
<path style=" stroke:none;fill-rule:nonzero;fill:rgb(98.429871%,91.369629%,90.589905%);fill-opacity:1;" d="M 204.785156 60.324219 L 204.785156 107.582031 L 252.042969 107.582031 C 252.042969 81.488281 230.878906 60.324219 204.785156 60.324219 Z M 204.785156 60.324219 "/>
<g clip-path="url(#clip2)" clip-rule="nonzero">
<path style=" stroke:none;fill-rule:nonzero;fill:rgb(90.19928%,29.019165%,9.799194%);fill-opacity:1;" d="M 165.402344 288.738281 L 0 257.230469 L 0 36.695312 L 165.402344 5.191406 Z M 165.402344 288.738281 "/>
</g>
<path style=" stroke:none;fill-rule:nonzero;fill:rgb(100%,100%,100%);fill-opacity:1;" d="M 85.285156 91.828125 L 47.257812 91.828125 L 47.257812 202.097656 L 70.886719 202.097656 L 70.886719 164.109375 L 83.109375 164.109375 C 96.144531 164.109375 106.550781 160.675781 114.339844 153.839844 C 122.121094 146.996094 126.027344 138.03125 126.011719 126.964844 C 126.019531 103.542969 112.433594 91.828125 85.285156 91.828125 Z M 81.078125 145.269531 L 70.886719 145.269531 L 70.886719 110.898438 L 81.078125 110.898438 C 94.003906 110.898438 100.460938 116.570312 100.460938 127.894531 C 100.460938 139.488281 94.003906 145.269531 81.078125 145.269531 Z M 81.078125 145.269531 "/>
</g>
</svg>
