<?xml version="1.0" encoding="UTF-8"?>
<svg xmlns="http://www.w3.org/2000/svg" xmlns:xlink="http://www.w3.org/1999/xlink" width="283.5pt" height="297.749991pt" viewBox="0 0 283.5 297.749991" version="1.2">
<defs>
<clipPath id="clip1">
  <path d="M 3 10.945312 L 200 10.945312 L 200 222 L 3 222 Z M 3 10.945312 "/>
</clipPath>
<clipPath id="clip2">
  <path d="M 83 76 L 280 76 L 280 286.921875 L 83 286.921875 Z M 83 76 "/>
</clipPath>
</defs>
<g id="surface1">
<g clip-path="url(#clip1)" clip-rule="nonzero">
<path style=" stroke:none;fill-rule:nonzero;fill:rgb(0.779724%,46.669006%,74.119568%);fill-opacity:1;" d="M 145.382812 10.945312 C 134.085938 10.980469 126.253906 11.976562 116.785156 13.609375 C 88.824219 18.476562 83.730469 28.695312 83.730469 47.527344 L 83.730469 76.308594 L 149.125 76.308594 L 149.125 90.832031 L 49.636719 90.832031 C 30.484375 90.832031 13.722656 99.851562 8.410156 121.472656 C 2.40625 146.289062 2.140625 161.832031 8.410156 187.742188 C 13.167969 207.070312 23.65625 221.558594 42.816406 221.558594 L 69.207031 221.558594 L 69.207031 184.488281 C 69.207031 162.949219 88.722656 141.671875 111.089844 141.671875 L 163.667969 141.671875 C 182 141.671875 199.996094 128.148438 199.996094 109.882812 L 199.996094 47.527344 C 199.996094 29.8125 187.214844 16.566406 169.347656 13.59375 C 169.792969 13.550781 156.589844 10.902344 145.382812 10.945312 Z M 109.171875 39.996094 C 115.136719 39.996094 120.070312 44.910156 120.070312 50.902344 C 120.070312 56.953125 115.136719 61.78125 109.171875 61.78125 C 103.089844 61.78125 98.269531 56.960938 98.269531 50.902344 C 98.269531 44.933594 103.089844 39.996094 109.171875 39.996094 Z M 109.171875 39.996094 "/>
</g>
<g clip-path="url(#clip2)" clip-rule="nonzero">
<path style=" stroke:none;fill-rule:nonzero;fill:rgb(100%,75.689697%,2.749634%);fill-opacity:1;" d="M 138.34375 286.921875 C 149.644531 286.882812 157.476562 285.890625 166.945312 284.253906 C 194.902344 279.390625 199.996094 269.171875 199.996094 250.339844 L 199.996094 221.558594 L 134.601562 221.558594 L 134.601562 207.03125 L 234.097656 207.03125 C 253.25 207.03125 270.015625 198.011719 275.324219 176.390625 C 281.328125 151.578125 281.597656 136.035156 275.324219 110.121094 C 270.558594 90.796875 260.074219 76.308594 240.914062 76.308594 L 214.523438 76.308594 L 214.523438 113.375 C 214.523438 134.914062 195.003906 156.195312 172.640625 156.195312 L 120.0625 156.195312 C 101.730469 156.195312 83.730469 169.71875 83.730469 187.984375 L 83.730469 250.339844 C 83.730469 268.054688 96.511719 281.300781 114.378906 284.269531 C 113.9375 284.3125 127.140625 286.964844 138.34375 286.921875 Z M 174.566406 257.871094 C 168.601562 257.871094 163.667969 252.953125 163.667969 246.960938 C 163.667969 240.914062 168.601562 236.082031 174.566406 236.082031 C 180.648438 236.082031 185.464844 240.90625 185.464844 246.960938 C 185.464844 252.933594 180.640625 257.871094 174.566406 257.871094 Z M 174.566406 257.871094 "/>
</g>
</g>
</svg>
