<?xml version="1.0" encoding="UTF-8"?>
<svg xmlns="http://www.w3.org/2000/svg" xmlns:xlink="http://www.w3.org/1999/xlink" width="283.5pt" height="297.749991pt" viewBox="0 0 283.5 297.749991" version="1.2">
<defs>
<clipPath id="clip1">
  <path d="M 0 42.65625 L 283 42.65625 L 283 227 L 0 227 Z M 0 42.65625 "/>
</clipPath>
<clipPath id="clip2">
  <path d="M 165.273438 206.050781 C 106.527344 206.050781 56.605469 176.734375 56.605469 141.609375 C 56.605469 106.488281 100.652344 77.265625 159.398438 77.265625 C 233.59375 77.265625 267.972656 105.703125 267.972656 140.828125 C 267.972656 175.949219 230.070312 206.050781 165.273438 206.050781 Z M 141.773438 42.140625 C 65.402344 42.140625 0.785156 83.117188 0.785156 135.804688 C 0.785156 185.5625 65.015625 226.867188 141.386719 226.867188 C 217.753906 226.867188 282.761719 188.488281 282.761719 135.804688 C 282.761719 83.117188 218.144531 42.140625 141.773438 42.140625 Z M 141.773438 42.140625 "/>
</clipPath>
</defs>
<g id="surface1">
<g clip-path="url(#clip1)" clip-rule="nonzero">
<g clip-path="url(#clip2)" clip-rule="nonzero">
<path style=" stroke:none;fill-rule:nonzero;fill:rgb(78.799438%,79.598999%,80.799866%);fill-opacity:1;" d="M 0.785156 226.867188 L 0.785156 42.65625 L 282.761719 42.65625 L 282.761719 226.867188 Z M 0.785156 226.867188 "/>
</g>
</g>
<path style=" stroke:none;fill-rule:nonzero;fill:rgb(12.939453%,39.608765%,71.369934%);fill-opacity:1;" d="M 117.476562 99.03125 L 117.476562 253.910156 L 164.449219 253.910156 L 164.449219 193.675781 C 176.1875 193.675781 183.1875 191.125 190.875 205.148438 C 202.609375 225.226562 217.296875 253.910156 217.296875 253.910156 L 273.070312 253.910156 C 273.070312 253.910156 237.847656 196.542969 234.910156 193.675781 C 229.492188 187.9375 223.171875 187.9375 214.359375 185.070312 C 231.972656 182.203125 248.398438 174.917969 254.105469 159.3125 C 259.101562 144.972656 258.511719 126.730469 247.808594 114.496094 C 238.539062 104.8125 229.035156 99.019531 205.546875 99.019531 Z M 164.449219 131.285156 L 195.265625 131.285156 C 202.574219 131.285156 208.472656 138.449219 208.472656 145.625 C 208.472656 152.792969 202.597656 159.96875 195.265625 159.96875 L 164.449219 159.96875 Z M 164.449219 131.285156 "/>
</g>
</svg>
