<?xml version="1.0" encoding="UTF-8"?>
<svg xmlns="http://www.w3.org/2000/svg" xmlns:xlink="http://www.w3.org/1999/xlink" width="283.5pt" height="297.749991pt" viewBox="0 0 283.5 297.749991" version="1.2">
<defs>
<clipPath id="clip1">
  <path d="M 28.347656 11.542969 L 251.847656 11.542969 L 251.847656 290.402344 L 28.347656 290.402344 Z M 28.347656 11.542969 "/>
</clipPath>
</defs>
<g id="surface1">
<path style=" stroke:none;fill-rule:nonzero;fill:rgb(51.759338%,51.759338%,79.219055%);fill-opacity:1;" d="M 219.414062 285.753906 L 60.96875 285.753906 C 45.523438 285.753906 33.007812 273.269531 33.007812 257.867188 L 33.007812 44.078125 C 33.007812 28.675781 45.523438 16.191406 60.96875 16.191406 L 191.453125 16.191406 L 247.375 71.960938 L 247.375 257.867188 C 247.375 273.269531 234.855469 285.753906 219.414062 285.753906 "/>
<path style=" stroke:none;fill-rule:nonzero;fill:rgb(83.529663%,81.568909%,92.549133%);fill-opacity:1;" d="M 219.414062 285.753906 L 60.96875 285.753906 C 45.523438 285.753906 33.007812 273.269531 33.007812 257.867188 L 33.007812 211.390625 L 247.375 211.390625 L 247.375 257.867188 C 247.375 273.269531 234.855469 285.753906 219.414062 285.753906 "/>
<path style=" stroke:none;fill-rule:nonzero;fill:rgb(83.529663%,81.568909%,92.549133%);fill-opacity:1;" d="M 247.375 71.960938 L 219.414062 71.960938 C 203.96875 71.960938 191.453125 59.480469 191.453125 44.078125 L 191.453125 16.191406 L 247.375 71.960938 "/>
<path style=" stroke:none;fill-rule:nonzero;fill:rgb(100%,100%,100%);fill-opacity:1;" d="M 98.25 81.257812 L 98.25 164.914062 C 98.25 170.050781 117.027344 174.210938 140.191406 174.210938 C 163.355469 174.210938 182.132812 170.050781 182.132812 164.914062 L 182.132812 81.257812 L 98.25 81.257812 "/>
<path style=" stroke:none;fill-rule:nonzero;fill:rgb(32.548523%,33.329773%,68.629456%);fill-opacity:1;" d="M 182.132812 81.257812 C 182.132812 86.390625 163.355469 90.554688 140.191406 90.554688 C 117.027344 90.554688 98.25 86.390625 98.25 81.257812 C 98.25 76.125 117.027344 71.960938 140.191406 71.960938 C 163.355469 71.960938 182.132812 76.125 182.132812 81.257812 "/>
<g clip-path="url(#clip1)" clip-rule="nonzero">
<path style=" stroke:none;fill-rule:nonzero;fill:rgb(6.269836%,5.879211%,5.099487%);fill-opacity:1;" d="M 219.414062 281.105469 L 60.96875 281.105469 C 48.121094 281.105469 37.667969 270.683594 37.667969 257.867188 L 37.667969 216.039062 L 242.714844 216.039062 L 242.714844 257.867188 C 242.714844 270.683594 232.261719 281.105469 219.414062 281.105469 Z M 60.96875 20.839844 L 186.792969 20.839844 L 186.792969 44.078125 C 186.792969 62.015625 201.425781 76.609375 219.414062 76.609375 L 242.714844 76.609375 L 242.714844 206.746094 L 37.667969 206.746094 L 37.667969 44.078125 C 37.667969 31.265625 48.121094 20.839844 60.96875 20.839844 Z M 196.113281 27.410156 L 236.125 67.316406 L 219.414062 67.316406 C 206.566406 67.316406 196.113281 56.890625 196.113281 44.078125 Z M 194.746094 12.90625 C 193.875 12.035156 192.6875 11.542969 191.453125 11.542969 L 60.96875 11.542969 C 42.980469 11.542969 28.347656 26.136719 28.347656 44.078125 L 28.347656 257.867188 C 28.347656 275.808594 42.980469 290.402344 60.96875 290.402344 L 219.414062 290.402344 C 237.402344 290.402344 252.035156 275.808594 252.035156 257.867188 L 252.035156 71.960938 C 252.035156 70.730469 251.542969 69.546875 250.667969 68.675781 L 194.746094 12.90625 "/>
</g>
<path style=" stroke:none;fill-rule:nonzero;fill:rgb(6.269836%,5.879211%,5.099487%);fill-opacity:1;" d="M 98.25 234.628906 L 107.570312 234.628906 C 110.144531 234.628906 112.230469 232.550781 112.230469 229.984375 C 112.230469 227.417969 110.144531 225.335938 107.570312 225.335938 L 98.25 225.335938 C 90.539062 225.335938 84.269531 231.589844 84.269531 239.277344 C 84.269531 246.96875 90.539062 253.222656 98.25 253.222656 C 100.816406 253.222656 102.910156 255.308594 102.910156 257.867188 C 102.910156 260.429688 100.816406 262.515625 98.25 262.515625 L 88.929688 262.515625 C 86.355469 262.515625 84.269531 264.597656 84.269531 267.164062 C 84.269531 269.730469 86.355469 271.8125 88.929688 271.8125 L 98.25 271.8125 C 105.957031 271.8125 112.230469 265.558594 112.230469 257.867188 C 112.230469 250.179688 105.957031 243.925781 98.25 243.925781 C 95.679688 243.925781 93.589844 241.839844 93.589844 239.277344 C 93.589844 236.714844 95.679688 234.628906 98.25 234.628906 "/>
<path style=" stroke:none;fill-rule:nonzero;fill:rgb(6.269836%,5.879211%,5.099487%);fill-opacity:1;" d="M 191.453125 262.515625 L 177.472656 262.515625 L 177.472656 229.984375 C 177.472656 227.417969 175.386719 225.335938 172.8125 225.335938 C 170.238281 225.335938 168.152344 227.417969 168.152344 229.984375 L 168.152344 267.164062 C 168.152344 269.730469 170.238281 271.8125 172.8125 271.8125 L 191.453125 271.8125 C 194.027344 271.8125 196.113281 269.730469 196.113281 267.164062 C 196.113281 264.597656 194.027344 262.515625 191.453125 262.515625 "/>
<path style=" stroke:none;fill-rule:nonzero;fill:rgb(6.269836%,5.879211%,5.099487%);fill-opacity:1;" d="M 140.191406 262.515625 C 135.140625 262.515625 130.871094 256.128906 130.871094 248.574219 C 130.871094 241.015625 135.140625 234.628906 140.191406 234.628906 C 145.242188 234.628906 149.511719 241.015625 149.511719 248.574219 C 149.511719 250.832031 149.128906 252.984375 148.457031 254.894531 L 143.484375 249.933594 C 141.664062 248.121094 138.714844 248.121094 136.894531 249.933594 C 135.074219 251.75 135.074219 254.691406 136.894531 256.507812 L 142.476562 262.074219 C 141.742188 262.363281 140.976562 262.515625 140.191406 262.515625 Z M 155.460938 261.875 C 157.582031 258.105469 158.832031 253.519531 158.832031 248.574219 C 158.832031 235.761719 150.46875 225.335938 140.191406 225.335938 C 129.910156 225.335938 121.550781 235.761719 121.550781 248.574219 C 121.550781 261.386719 129.910156 271.8125 140.191406 271.8125 C 143.488281 271.8125 146.585938 270.734375 149.277344 268.855469 L 150.875 270.449219 C 151.785156 271.359375 152.976562 271.8125 154.171875 271.8125 C 155.363281 271.8125 156.554688 271.359375 157.464844 270.449219 C 159.285156 268.632812 159.285156 265.695312 157.464844 263.878906 L 155.460938 261.875 "/>
<path style=" stroke:none;fill-rule:nonzero;fill:rgb(6.269836%,5.879211%,5.099487%);fill-opacity:1;" d="M 140.191406 76.609375 C 158.597656 76.609375 170.816406 79.210938 175.683594 81.257812 C 170.816406 83.304688 158.597656 85.90625 140.191406 85.90625 C 121.785156 85.90625 109.566406 83.304688 104.699219 81.257812 C 109.566406 79.210938 121.785156 76.609375 140.191406 76.609375 Z M 102.910156 90.527344 C 105.105469 91.3125 107.421875 91.902344 109.523438 92.367188 C 117.765625 94.195312 128.65625 95.199219 140.191406 95.199219 C 151.722656 95.199219 162.613281 94.195312 170.859375 92.367188 C 172.960938 91.902344 175.273438 91.3125 177.472656 90.527344 L 177.472656 108.199219 C 174.648438 110.269531 161.613281 113.792969 140.191406 113.792969 C 118.769531 113.792969 105.734375 110.269531 102.910156 108.199219 Z M 102.910156 118.410156 C 105.105469 119.199219 107.421875 119.789062 109.523438 120.253906 C 117.765625 122.082031 128.65625 123.085938 140.191406 123.085938 C 151.722656 123.085938 162.613281 122.082031 170.859375 120.253906 C 172.960938 119.789062 175.273438 119.199219 177.472656 118.410156 L 177.472656 136.082031 C 174.648438 138.15625 161.613281 141.675781 140.191406 141.675781 C 118.769531 141.675781 105.734375 138.15625 102.910156 136.082031 Z M 140.191406 169.5625 C 118.789062 169.5625 105.746094 166.046875 102.910156 163.972656 L 102.910156 146.296875 C 105.105469 147.085938 107.421875 147.671875 109.523438 148.136719 C 117.765625 149.96875 128.65625 150.972656 140.191406 150.972656 C 151.722656 150.972656 162.613281 149.96875 170.859375 148.136719 C 172.960938 147.671875 175.273438 147.085938 177.472656 146.296875 L 177.472656 163.972656 C 174.632812 166.046875 161.59375 169.5625 140.191406 169.5625 Z M 109.523438 176.023438 C 117.765625 177.851562 128.65625 178.859375 140.191406 178.859375 C 151.722656 178.859375 162.613281 177.851562 170.859375 176.023438 C 177.699219 174.511719 186.792969 171.707031 186.792969 164.914062 L 186.792969 81.257812 C 186.792969 74.464844 177.699219 71.664062 170.859375 70.148438 C 162.613281 68.320312 151.722656 67.316406 140.191406 67.316406 C 128.65625 67.316406 117.765625 68.320312 109.523438 70.148438 C 102.679688 71.664062 93.589844 74.464844 93.589844 81.257812 L 93.589844 164.914062 C 93.589844 171.707031 102.679688 174.511719 109.523438 176.023438 "/>
</g>
</svg>
