<?xml version="1.0" encoding="UTF-8"?>
<svg xmlns="http://www.w3.org/2000/svg" xmlns:xlink="http://www.w3.org/1999/xlink" width="283.5pt" height="297.749991pt" viewBox="0 0 283.5 297.749991" version="1.2">
<defs>
<clipPath id="clip1">
  <path d="M 207 9 L 283 9 L 283 290 L 207 290 Z M 207 9 "/>
</clipPath>
</defs>
<g id="surface1">
<g clip-path="url(#clip1)" clip-rule="nonzero">
<path style=" stroke:none;fill-rule:nonzero;fill:rgb(16.079712%,71.369934%,96.469116%);fill-opacity:1;" d="M 283.546875 58.167969 L 283.546875 240.28125 C 283.546875 249.253906 277.976562 257.234375 269.582031 260.203125 L 207.371094 289.449219 L 213.011719 212.800781 L 213.011719 85.648438 L 207.371094 9 L 269.582031 38.246094 C 277.976562 41.214844 283.546875 49.195312 283.546875 58.167969 Z M 283.546875 58.167969 "/>
</g>
<path style=" stroke:none;fill-rule:nonzero;fill:rgb(0.779724%,46.669006%,74.119568%);fill-opacity:1;" d="M 36.675781 219.132812 L 213.011719 85.648438 L 213.011719 17.5 C 213.011719 9.035156 202.558594 5.082031 196.964844 11.425781 L 6.050781 186.234375 C -0.296875 192.097656 0.0625 202.25 6.804688 207.652344 C 6.804688 207.652344 16.144531 216.355469 19.523438 218.769531 C 24.714844 222.480469 31.535156 222.902344 36.675781 219.132812 Z M 36.675781 219.132812 "/>
<path style=" stroke:none;fill-rule:nonzero;fill:rgb(0.779724%,53.329468%,81.959534%);fill-opacity:1;" d="M 36.675781 79.316406 L 213.011719 212.800781 L 213.011719 280.949219 C 213.011719 289.414062 202.558594 293.367188 196.964844 287.023438 L 6.050781 112.214844 C -0.296875 106.351562 0.0625 96.199219 6.804688 90.796875 C 6.804688 90.796875 16.144531 82.09375 19.523438 79.679688 C 24.714844 75.96875 31.535156 75.546875 36.675781 79.316406 Z M 36.675781 79.316406 "/>
</g>
</svg>
